<?xml version="1.0" standalone="no"?>
<!DOCTYPE svg PUBLIC "-//W3C//DTD SVG 20010904//EN"
 "http://www.w3.org/TR/2001/REC-SVG-20010904/DTD/svg10.dtd">
<svg version="1.0" xmlns="http://www.w3.org/2000/svg"
 width="500.000000pt" height="500.000000pt" viewBox="0 0 500.000000 500.000000"
 preserveAspectRatio="xMidYMid meet">
<metadata>
Created by potrace 1.14, written by Peter Selinger 2001-2017
</metadata>
<g transform="translate(0.000000,500.000000) scale(0.100000,-0.100000)"
fill="#000000" stroke="none">
<path d="M2409 4990 c-13 -3 -48 -5 -76 -5 -29 0 -53 -2 -53 -5 0 -3 -24 -6
-53 -7 -56 -2 -104 -8 -152 -19 -16 -4 -40 -8 -52 -8 -13 -1 -23 -3 -23 -6 0
-3 -11 -7 -24 -8 -13 -1 -50 -9 -82 -17 -69 -19 -69 -19 -114 -29 -19 -5 -41
-13 -47 -18 -7 -6 -13 -8 -13 -4 0 4 -13 0 -30 -9 -16 -9 -30 -13 -30 -11 0 3
-25 -6 -55 -19 -30 -14 -55 -22 -55 -19 0 3 -7 -2 -16 -10 -8 -9 -23 -16 -32
-16 -10 0 -27 -7 -38 -15 -12 -8 -24 -11 -28 -8 -3 3 -6 2 -6 -4 0 -5 -18 -16
-40 -23 -22 -7 -45 -19 -51 -27 -6 -7 -15 -10 -20 -7 -5 3 -9 1 -9 -4 0 -4
-16 -14 -35 -22 -19 -8 -35 -16 -35 -20 0 -3 -20 -16 -44 -30 -25 -13 -43 -27
-40 -32 3 -4 -1 -5 -8 -3 -8 3 -23 -3 -33 -13 -11 -10 -40 -32 -65 -49 -25
-17 -57 -42 -73 -57 -15 -14 -29 -24 -31 -23 -10 7 -266 -238 -266 -254 0 -6
-5 -7 -10 -4 -6 3 -10 3 -10 -2 0 -4 -18 -28 -41 -53 -22 -25 -47 -57 -57 -72
-9 -16 -19 -28 -23 -28 -3 0 -28 -33 -55 -72 -27 -40 -51 -75 -54 -78 -8 -8
-58 -86 -82 -128 -62 -109 -77 -140 -71 -146 3 -3 2 -6 -4 -6 -10 0 -93 -178
-93 -199 0 -6 -5 -11 -12 -11 -6 0 -9 -2 -6 -5 3 -3 -10 -51 -28 -107 -18 -55
-31 -105 -28 -109 3 -5 1 -9 -4 -9 -5 0 -9 -6 -10 -12 0 -7 -3 -22 -5 -33 -8
-30 -25 -106 -31 -135 -11 -55 -15 -71 -21 -80 -3 -6 0 -10 7 -10 8 0 9 -3 3
-8 -10 -7 -18 -54 -19 -114 -1 -16 -3 -28 -7 -28 -3 0 -5 -25 -5 -56 1 -31 -2
-58 -5 -60 -7 -4 -2 -265 6 -309 3 -16 7 -59 10 -95 3 -36 8 -78 11 -95 4 -16
8 -41 10 -55 3 -27 36 -175 53 -237 6 -21 11 -41 11 -45 1 -4 10 -31 21 -60
11 -29 22 -60 24 -68 7 -29 48 -125 101 -236 19 -38 34 -76 34 -82 0 -7 3 -12
8 -12 4 0 14 -15 21 -32 19 -42 93 -162 103 -166 5 -2 8 -9 8 -16 0 -7 8 -21
18 -32 10 -10 37 -47 61 -81 24 -35 48 -63 52 -63 5 0 9 -5 9 -10 0 -6 15 -27
32 -48 39 -43 241 -245 284 -283 60 -51 221 -169 232 -169 7 0 12 -4 12 -8 0
-5 12 -15 28 -23 15 -8 33 -20 40 -27 8 -7 18 -10 23 -7 5 4 9 1 9 -4 0 -6 7
-11 15 -11 8 0 15 -4 15 -10 0 -5 4 -10 9 -10 5 0 36 -15 69 -34 33 -19 63
-32 66 -28 3 3 6 0 6 -6 0 -7 5 -12 11 -12 6 0 44 -16 85 -35 40 -19 80 -35
88 -35 8 0 18 -5 21 -10 4 -6 11 -8 16 -5 5 4 9 1 9 -6 0 -7 3 -10 6 -7 3 4
36 -5 72 -18 37 -13 75 -24 84 -24 10 0 18 -5 18 -11 0 -5 4 -7 10 -4 5 3 15
3 22 -1 7 -4 21 -9 33 -10 39 -5 75 -13 86 -20 11 -6 64 -15 112 -17 9 -1 17
-4 17 -7 0 -4 12 -7 28 -7 25 -1 65 -6 162 -19 62 -9 351 -15 363 -7 6 4 25 8
42 9 37 2 120 12 160 19 17 3 46 7 65 10 19 2 42 6 50 8 35 8 77 17 100 21 67
13 246 68 320 99 14 6 27 11 30 12 27 9 63 26 170 78 69 33 127 63 130 66 3 3
21 15 40 25 19 10 52 28 73 39 20 12 37 24 37 29 0 4 6 8 14 8 7 0 25 11 40
25 14 13 26 22 26 19 0 -3 7 1 15 8 16 15 23 20 85 68 67 51 84 66 194 176
115 114 180 184 171 184 -3 0 4 10 17 23 13 12 35 39 48 59 14 21 28 38 33 38
4 0 7 5 7 10 0 5 8 18 18 29 19 20 100 150 104 166 1 6 10 19 20 29 9 10 15
23 12 28 -3 4 -1 8 3 8 5 0 20 25 34 55 13 30 27 55 31 55 4 0 10 16 14 35 3
19 10 35 15 35 5 0 9 9 9 20 0 11 5 20 12 20 6 0 9 3 6 6 -4 3 1 22 9 42 8 20
20 48 26 62 6 14 11 27 12 30 1 3 11 37 23 75 25 83 71 274 79 330 3 22 9 49
13 60 3 11 6 39 6 63 -1 23 3 42 7 42 5 0 8 12 6 27 -1 16 2 36 6 46 13 30 8
402 -5 402 -1 0 -12 114 -13 143 -1 12 -4 22 -7 22 -3 0 -6 8 -6 18 -1 30 -12
94 -33 188 -21 95 -24 106 -37 139 -9 24 -8 22 -18 63 -4 17 -11 32 -16 32 -4
0 -7 6 -7 13 2 20 -36 127 -45 127 -5 0 -7 4 -3 9 3 6 -1 16 -8 23 -8 7 -12
20 -9 30 2 10 -1 18 -7 18 -6 0 -11 9 -11 20 0 11 -7 23 -15 26 -8 4 -12 11
-9 16 4 6 2 13 -3 17 -6 3 -20 26 -32 51 -12 25 -33 63 -46 85 -13 22 -30 51
-37 65 -7 14 -21 34 -30 44 -10 11 -18 26 -18 33 0 7 -4 13 -10 13 -5 0 -12
11 -16 25 -3 14 -13 25 -21 25 -8 0 -11 5 -8 10 3 6 2 10 -2 10 -5 0 -17 16
-27 35 -10 19 -23 32 -27 29 -5 -3 -9 2 -9 10 0 9 -4 16 -10 16 -5 0 -10 4
-10 10 0 5 -10 20 -22 33 -13 13 -43 47 -68 75 -25 28 -51 52 -58 52 -7 0 -11
4 -8 8 6 10 -138 145 -218 207 -15 11 -32 25 -39 30 -6 6 -34 26 -62 45 -27
19 -51 38 -53 43 -2 4 -8 7 -13 7 -6 0 -19 9 -31 20 -12 11 -28 20 -35 20 -7
0 -13 4 -13 8 0 5 -16 14 -35 22 -19 8 -35 17 -35 22 0 4 -6 8 -14 8 -8 0 -21
6 -28 14 -15 14 -58 31 -71 28 -5 -1 -6 2 -2 8 3 5 1 10 -4 10 -20 0 -26 2
-53 21 -14 10 -29 19 -32 19 -3 0 -26 9 -50 21 -25 11 -51 22 -58 23 -7 1 -31
10 -53 20 -22 10 -44 19 -50 20 -5 2 -17 5 -25 8 -51 18 -159 49 -180 51 -14
1 -31 6 -38 11 -7 4 -16 5 -19 2 -3 -3 -13 -1 -23 4 -9 5 -39 12 -66 16 -27 3
-53 9 -58 11 -5 3 -34 8 -65 10 -31 3 -59 10 -62 15 -4 6 -9 6 -14 -2 -4 -6
-14 -8 -24 -5 -37 15 -293 27 -342 15z m-115 -2101 c-3 -6 3 -13 15 -16 12 -3
21 -10 21 -15 0 -5 4 -7 9 -3 6 3 18 -3 28 -14 10 -10 28 -22 40 -25 13 -4 20
-13 17 -21 -6 -14 -34 -9 -46 8 -3 6 -17 11 -30 12 -13 1 -28 12 -35 26 -7 13
-13 20 -13 16 0 -5 -7 -1 -16 8 -17 16 -12 51 6 40 6 -4 8 -11 4 -16z m156
-109 c0 -5 -4 -10 -10 -10 -5 0 -10 5 -10 10 0 6 5 10 10 10 6 0 10 -4 10 -10z
m35 -20 c3 -6 -1 -7 -9 -4 -18 7 -21 14 -7 14 6 0 13 -4 16 -10z m67 -14 c8 4
10 3 5 -2 -14 -15 -56 -12 -50 3 4 10 9 11 19 2 7 -6 19 -7 26 -3z m58 -27 c0
-4 9 -6 19 -4 11 2 22 -3 25 -12 4 -8 13 -13 21 -9 8 3 15 0 15 -6 0 -6 3 -9
6 -5 4 3 13 0 20 -8 24 -24 15 -26 -23 -5 -20 10 -41 16 -46 13 -6 -4 -7 -1
-3 6 5 8 3 12 -5 11 -19 -3 -59 11 -59 19 0 4 7 8 15 8 8 0 15 -4 15 -8z
m-300 -183 c0 3 7 1 15 -6 8 -7 15 -9 15 -5 0 4 6 2 13 -4 8 -6 22 -12 33 -14
18 -3 32 -9 132 -54 20 -10 42 -18 47 -18 6 -1 9 -5 8 -11 -1 -5 7 -11 18 -11
21 -2 58 -33 39 -33 -6 0 -8 -5 -4 -12 6 -10 4 -10 -7 -2 -8 6 -31 17 -51 23
-21 7 -38 17 -38 22 0 6 -4 8 -8 5 -5 -3 -20 1 -35 9 -15 8 -27 12 -27 9 0 -3
-7 2 -16 10 -8 9 -19 14 -24 11 -11 -6 -110 45 -110 57 0 5 -4 6 -10 3 -5 -3
-10 -1 -10 5 0 7 -10 21 -22 32 -20 17 -19 17 10 -2 17 -12 32 -18 32 -14z
m354 -172 c3 -8 2 -12 -4 -9 -6 3 -10 10 -10 16 0 14 7 11 14 -7z"/>
<path d="M2336 2832 c-2 -4 4 -8 14 -8 10 0 16 4 14 8 -3 4 -9 8 -14 8 -5 0
-11 -4 -14 -8z"/>
</g>
</svg>
